<svg width="48" height="48" viewBox="0 0 48 48" fill="none" xmlns="http://www.w3.org/2000/svg">
<path d="M22.6179 4.89575C25.6989 3.16598 33.0286 1.86405 40.032 8.50122C41.2026 9.49094 42.9214 11.162 43.8494 13.3235C44.8403 15.6322 44.8877 18.4317 42.7253 21.2766L42.6697 21.345L42.3835 21.6604C42.1704 21.8827 41.951 22.0819 41.7312 22.2649C43.8832 24.7056 44.2966 27.3845 43.5544 29.7122C42.7394 32.2678 40.5343 34.285 38.2722 34.7063C33.6661 35.8489 30.8787 36.4814 28.9978 37.0139C27.3631 37.4767 26.627 37.8119 26.113 38.2043L25.9041 38.3762C25.2102 38.9931 24.5149 39.6672 23.8035 40.3538C23.1033 41.0294 22.384 41.7213 21.6833 42.3264C20.9886 42.9264 20.253 43.494 19.5095 43.8938C18.8037 44.2733 17.9369 44.5832 17.0056 44.4788C13.6951 44.2974 10.2165 41.9347 7.72827 39.3167C6.44659 37.968 5.34085 36.465 4.58374 34.9807C3.8447 33.5317 3.3509 31.9306 3.53687 30.4504H3.53784C3.58827 29.9101 3.79554 29.4134 4.00659 29.0178C4.24325 28.5743 4.5532 28.1275 4.88647 27.6995C5.55325 26.8431 6.41328 25.9355 7.2478 25.1028C8.08126 24.2711 8.94751 23.4569 9.59741 22.8293C9.93037 22.5078 10.204 22.2374 10.4089 22.0217C10.5351 21.889 10.607 21.8052 10.6433 21.762C11.5502 19.6019 12.8454 16.3377 14.6873 13.2043C16.5667 10.0072 19.1164 6.76455 22.6179 4.89478V4.89575ZM10.948 25.6897C10.4445 26.1714 9.90594 26.688 9.36694 27.2258C8.55647 28.0346 7.80301 28.8367 7.25366 29.5422C6.97909 29.8949 6.7798 30.1925 6.65308 30.4299C6.51543 30.6879 6.52035 30.7692 6.52319 30.7151C6.52131 30.7515 6.51797 30.7883 6.51343 30.8245L6.4978 31.0715C6.49243 31.6852 6.71343 32.5524 7.25659 33.6174C7.85936 34.7991 8.78103 36.0706 9.9021 37.2502C12.2091 39.6776 15.0237 41.38 17.196 41.4866L17.3328 41.4993L17.4099 41.5002C17.5201 41.4913 17.7348 41.4424 18.0886 41.2522C18.5463 41.0061 19.0882 40.6036 19.7224 40.0559C20.3504 39.5135 21.0114 38.8788 21.7205 38.1946C21.9198 38.0022 22.1241 37.8073 22.3298 37.6096C19.5185 36.3386 16.7756 34.2586 14.6521 31.8733C13.0115 30.0303 11.6408 27.8897 10.948 25.6897ZM39.0134 9.62329H39.0144L39.0173 9.62134L39.0242 9.61255L39.0134 9.62329Z" fill="#F682A5"/>
</svg>
