<svg width="48" height="48" viewBox="0 0 48 48" fill="none" xmlns="http://www.w3.org/2000/svg">
<path d="M24.002 2.5C35.876 2.5 45.502 12.1259 45.502 24C45.502 35.874 35.876 45.5 24.002 45.5C12.1278 45.5 2.50195 35.874 2.50195 24C2.50195 12.1259 12.1278 2.50002 24.002 2.5ZM31.1523 41.0664C32.6764 40.4271 34.0964 39.5894 35.3809 38.5859L32.2236 38.0146L31.1523 41.0664ZM9.83887 35.8994C11.1706 37.4828 12.762 38.8399 14.5488 39.9043L14.5889 35.8486L9.83887 35.8994ZM20.0723 23.1094L21.5977 28H26.4062L27.9307 23.1094L24.002 20.1357L20.0723 23.1094ZM6.95508 16.7998C6.19352 18.6006 5.70878 20.5472 5.55469 22.5859L8.53711 20.3838L6.95508 16.7998ZM39.418 18.251L42.1201 20.2461C41.7778 18.5852 41.213 17.0057 40.458 15.54L39.418 18.251ZM24.002 5.5C23.1706 5.5 22.3521 5.55488 21.5498 5.66113L24.0303 7.40625L26.4775 5.66504C25.6677 5.55673 24.8414 5.5 24.002 5.5Z" fill="#C3B2E7"/>
</svg>
