<svg width="48" height="48" viewBox="0 0 48 48" fill="none" xmlns="http://www.w3.org/2000/svg">
<path d="M22.876 39.0068C23.4245 38.3861 24.3724 38.3276 24.9932 38.876C25.5431 39.3618 26.228 40.241 26.4376 41.3779C26.6709 42.6443 26.268 43.9977 24.9932 45.124C24.3724 45.6725 23.4246 45.6139 22.876 44.9932C22.3276 44.3723 22.3861 43.4245 23.0069 42.876C23.3017 42.6155 23.4136 42.4097 23.459 42.2842C23.5034 42.1616 23.5102 42.0459 23.4874 41.9219C23.4328 41.6257 23.2116 41.3048 23.0069 41.124C22.3861 40.5755 22.3276 39.6277 22.876 39.0068ZM10.8985 33.5029C11.7253 33.4518 12.4371 34.0805 12.4883 34.9072C12.5354 35.6685 12.3926 36.8178 11.713 37.8047C10.9586 38.8998 9.67472 39.5976 7.90729 39.4883C7.0807 39.437 6.45212 38.726 6.50299 37.8994C6.55414 37.0726 7.26599 36.443 8.09283 36.4941C8.52071 36.5206 8.77325 36.4488 8.91608 36.3818C9.0562 36.3161 9.1588 36.2237 9.24225 36.1025C9.43671 35.82 9.51282 35.3944 9.4942 35.0928C9.44304 34.2661 10.0719 33.5543 10.8985 33.5029ZM35.9122 33.5078C36.6573 33.4642 37.7919 33.5957 38.7725 34.2344C39.8686 34.9482 40.6021 36.1932 40.4883 37.9316C40.4342 38.7582 39.7202 39.3841 38.8936 39.3301C38.067 39.2759 37.4411 38.5619 37.4952 37.7354C37.5199 37.3564 37.4522 37.1446 37.3965 37.0322C37.3409 36.9201 37.2581 36.8283 37.1348 36.748C36.8461 36.5602 36.4056 36.4844 36.088 36.5029C35.261 36.5513 34.5514 35.9198 34.503 35.0928C34.4546 34.2659 35.0853 33.5563 35.9122 33.5078ZM24.0001 12.5C30.3513 12.5 35.5001 17.6487 35.5001 24C35.5 30.3512 30.3512 35.5 24.0001 35.5C17.6488 35.5 12.5001 30.3512 12.5001 24C12.5001 17.6487 17.6488 12.5 24.0001 12.5ZM6.87604 22.0068C7.42454 21.3861 8.3724 21.3275 8.99323 21.876C9.61394 22.4245 9.67254 23.3724 9.12408 23.9932C8.63831 24.543 7.75912 25.2279 6.62213 25.4375C5.35574 25.6708 4.00235 25.2679 2.87604 23.9932C2.32755 23.3723 2.38611 22.4245 3.0069 21.876C3.62771 21.3275 4.57557 21.3861 5.12408 22.0068C5.38477 22.3019 5.59044 22.4146 5.71588 22.46C5.83849 22.5043 5.95419 22.5101 6.07819 22.4873C6.37434 22.4327 6.69518 22.2116 6.87604 22.0068ZM38.876 23.0068C40.0024 21.732 41.3557 21.3292 42.6221 21.5625C43.7591 21.7721 44.6383 22.457 45.1241 23.0068C45.6724 23.6277 45.614 24.5756 44.9932 25.124C44.3724 25.6724 43.4245 25.6139 42.876 24.9932C42.6952 24.7885 42.3744 24.5673 42.0782 24.5127C41.9542 24.4899 41.8385 24.4967 41.7159 24.541C41.5904 24.5865 41.3846 24.6983 41.1241 24.9932C40.5756 25.6139 39.6277 25.6724 39.0069 25.124C38.3861 24.5755 38.3276 23.6277 38.876 23.0068ZM10.0977 7.50293C10.9245 7.55412 11.5542 8.26595 11.503 9.09277C11.4843 9.39497 11.5609 9.82129 11.7559 10.1045C11.8395 10.2259 11.9417 10.3189 12.0821 10.3848C12.2253 10.4519 12.4788 10.5236 12.9073 10.4971C13.7341 10.4459 14.446 11.0755 14.4971 11.9023C14.548 12.7289 13.9194 13.441 13.0928 13.4922C11.3242 13.6016 10.04 12.9023 9.28522 11.8066C8.60502 10.8191 8.46075 9.66905 8.50787 8.90723C8.55908 8.08056 9.27108 7.45199 10.0977 7.50293ZM39.0928 7.50781C39.9195 7.55905 40.5481 8.27104 40.4971 9.09766C40.4459 9.92445 39.7341 10.5541 38.9073 10.5029C38.6057 10.4843 38.1801 10.5604 37.8975 10.7549C37.7763 10.8384 37.684 10.9409 37.6182 11.0811C37.5512 11.2239 37.4795 11.4763 37.5059 11.9043C37.557 12.7311 36.9274 13.443 36.1006 13.4941C35.2741 13.545 34.5631 12.9164 34.5118 12.0898C34.4025 10.3224 35.1002 9.03852 36.1954 8.28418C37.1823 7.60443 38.3315 7.4607 39.0928 7.50781ZM23.0069 2.87598C23.6277 2.32751 24.5756 2.38606 25.1241 3.00684C25.6725 3.62766 25.614 4.57554 24.9932 5.12402C24.7885 5.30489 24.5673 5.6257 24.5128 5.92188C24.4899 6.04587 24.4968 6.16156 24.5411 6.28418C24.5866 6.40966 24.6984 6.61553 24.9932 6.87598C25.6139 7.4245 25.6726 8.37237 25.1241 8.99316C24.5756 9.61392 23.6277 9.67245 23.0069 9.12402C21.7321 7.99771 21.3292 6.64432 21.5626 5.37793C21.7721 4.24092 22.4571 3.36175 23.0069 2.87598Z" fill="#FEDF6F"/>
</svg>
