<svg width="48" height="48" viewBox="0 0 48 48" fill="none" xmlns="http://www.w3.org/2000/svg">
<path d="M12.3397 4.55249C13.1388 4.33525 13.9629 4.8071 14.1805 5.6062L14.3279 6.14917C16.4812 5.85709 18.611 6.161 20.5203 6.95288L20.9861 6.15698C21.4044 5.44204 22.3239 5.20172 23.0389 5.61987C23.7537 6.03826 23.9942 6.9567 23.576 7.67163L23.1248 8.44116C23.8744 9.00453 24.5599 9.6566 25.16 10.3884C25.2062 10.4448 25.2464 10.5046 25.283 10.5652C31.4558 11.1946 36.2988 16.3153 36.493 22.6072C41.5846 23.3322 45.4997 27.7078 45.4998 32.9998C45.4998 38.7988 40.7988 43.4998 34.9998 43.4998H13.9998C7.64864 43.4996 2.49982 38.3509 2.49982 31.9998C2.49986 28.8398 3.77496 25.9791 5.83771 23.9011C5.50134 23.362 5.20569 22.7909 4.95685 22.1912L4.38263 22.3435C3.58171 22.5547 2.761 22.077 2.54962 21.2761C2.33846 20.4753 2.81626 19.6546 3.617 19.4431L4.16876 19.2976C3.8801 17.1909 4.18882 15.1123 4.97833 13.2468L4.18634 12.7957C3.46673 12.3855 3.21571 11.4695 3.62579 10.7498C4.03594 10.0302 4.95201 9.77929 5.67169 10.1892L6.492 10.657C7.74218 9.03544 9.42574 7.72658 11.4285 6.9187L11.2859 6.39331C11.0687 5.59414 11.5405 4.77004 12.3397 4.55249ZM21.2703 10.7996C19.2495 9.30375 16.5985 8.66643 13.9588 9.25952L13.6297 9.3396C8.88789 10.5908 6.10868 15.3716 7.36603 19.9929L7.49396 20.4207C7.68373 20.9997 7.93188 21.5455 8.22736 22.0554C9.29047 21.4372 10.4607 20.9824 11.7049 20.7302C12.6096 15.8001 16.4058 11.883 21.2703 10.7996ZM13.0399 22.0457H13.0408V22.0447H13.0399V22.0457Z" fill="#B8CEDC"/>
</svg>
