<svg width="48" height="48" viewBox="0 0 48 48" fill="none" xmlns="http://www.w3.org/2000/svg">
<path d="M6.15564 31.302C7.80657 30.5008 9.73634 30.3771 11.6635 30.5969C15.5002 31.0346 19.9247 32.9083 23.684 34.8333C27.3935 36.7327 30.9252 38.1775 33.9359 38.4534C35.4169 38.589 36.7054 38.4346 37.8051 37.9651C38.8892 37.5021 39.8844 36.6929 40.7367 35.3606C41.1831 34.6627 42.1111 34.4591 42.809 34.9055C43.5061 35.3521 43.7101 36.2792 43.264 36.9768C42.1165 38.7706 40.6697 40.0035 38.9828 40.7239C37.3114 41.4375 35.4982 41.6088 33.6625 41.4407C30.0392 41.1087 26.0699 39.4259 22.3168 37.5042C18.6135 35.6079 14.5931 33.9504 11.3236 33.5774C9.69783 33.392 8.40845 33.5434 7.46521 34.0012C6.58285 34.4295 5.85746 35.1945 5.43787 36.5979C5.20061 37.3914 4.36424 37.8427 3.57068 37.6057C2.77722 37.3684 2.32595 36.533 2.56287 35.7395C3.19884 33.6117 4.44383 32.1329 6.15564 31.302ZM2.50037 11.3098C2.50037 8.64956 4.85866 6.60649 7.49158 6.98657L16.2836 8.25708L17.3217 8.40942C18.3038 8.56359 19.1241 8.74511 19.849 9.15942L20.1273 9.33032C20.4006 9.50888 20.6583 9.7114 20.8959 9.93579L21.0433 10.0823C21.7633 10.8318 22.2071 11.8298 22.7953 13.0852L31.3588 31.3616C31.5762 31.8261 31.5411 32.3701 31.266 32.803C30.9908 33.2358 30.5133 33.4982 30.0004 33.4983C27.4996 33.4983 25.8226 32.8167 24.2152 31.8577C22.663 30.9315 21.531 30.0166 19.556 28.9758L19.1498 28.7659C17.5974 27.9812 15.6598 27.6235 13.8656 27.5247C12.0616 27.4253 10.583 27.5962 10.0199 27.7385L9.88904 27.7659C9.23081 27.8714 8.57392 27.5266 8.29041 26.9114C7.98818 26.255 8.19643 25.476 8.7865 25.0588L14.849 20.7727L15.1674 20.5452L15.0248 20.1799L14.1771 18.0442C14.0104 17.6244 13.9148 17.3859 13.8304 17.2131C13.7934 17.1372 13.7676 17.095 13.7533 17.0735L13.7416 17.0579L13.6595 16.9905C13.6473 16.9843 13.602 16.9647 13.4896 16.9358C13.3967 16.9119 13.2865 16.8878 13.1449 16.8606L12.6058 16.7629L6.10486 15.6096C4.02002 15.2397 2.5007 13.4271 2.50037 11.3098ZM38.0004 12.5042C42.1423 12.5044 45.5004 15.8621 45.5004 20.0042C45.5002 24.146 42.1422 27.5039 38.0004 27.5042C33.8583 27.5042 30.5005 24.1462 30.5004 20.0042C30.5004 15.862 33.8582 12.5042 38.0004 12.5042ZM38.0004 15.5042C35.5151 15.5042 33.5004 17.5189 33.5004 20.0042C33.5005 22.4893 35.5152 24.5042 38.0004 24.5042C40.4854 24.5039 42.5002 22.4892 42.5004 20.0042C42.5004 17.519 40.4855 15.5044 38.0004 15.5042Z" fill="#B8CEDC"/>
</svg>
