<svg width="22" height="22" viewBox="0 0 22 22" fill="none" xmlns="http://www.w3.org/2000/svg">
<path d="M6 1C6 0.44772 5.55228 0 5 0C4.44772 0 4 0.44772 4 1V1.44885C4.38032 1.32821 4.78554 1.24208 5.21533 1.17961C5.46328 1.14357 5.72472 1.11476 6 1.09173V1Z" fill="#8F8881"/>
<path d="M18 1.44885C17.6197 1.32821 17.2145 1.24208 16.7847 1.17961C16.5367 1.14357 16.2753 1.11476 16 1.09173V1C16 0.44772 16.4477 0 17 0C17.5523 0 18 0.44772 18 1V1.44885Z" fill="#8F8881"/>
<path fill-rule="evenodd" clip-rule="evenodd" d="M12.0288 1H9.9712C8.02294 0.99997 6.45141 0.99994 5.21533 1.17961C3.92535 1.3671 2.8568 1.76781 2.01802 2.6746C1.18949 3.57031 0.83279 4.69272 0.66416 6.04866C0.49997 7.36894 0.49998 9.0541 0.5 11.1739V11.8261C0.49998 13.9459 0.49997 15.6311 0.66416 16.9513C0.83279 18.3073 1.18949 19.4297 2.01802 20.3254C2.8568 21.2322 3.92535 21.6329 5.21533 21.8204C6.45142 22.0001 8.02293 22 9.9712 22H12.0288C13.9771 22 15.5486 22.0001 16.7847 21.8204C18.0747 21.6329 19.1432 21.2322 19.982 20.3254C20.8105 19.4297 21.1672 18.3073 21.3358 16.9513C21.5 15.6311 21.5 13.9459 21.5 11.8261V11.1739C21.5 9.0541 21.5 7.36895 21.3358 6.04866C21.1672 4.69272 20.8105 3.57031 19.982 2.6746C19.1432 1.76781 18.0747 1.3671 16.7847 1.17961C15.5486 0.99994 13.9771 0.99997 12.0288 1ZM3.49783 8C3.03921 8 2.8099 8 2.66385 8.14417C2.51781 8.28833 2.51487 8.51472 2.509 8.96751C2.50027 9.6407 2.5 10.3942 2.5 11.2432V11.7568C2.5 13.9616 2.50182 15.5221 2.64887 16.7045C2.79327 17.8656 3.06263 18.5094 3.48622 18.9673C3.89956 19.4142 4.4647 19.6903 5.503 19.8412C6.57858 19.9975 8.00425 20 10.05 20H11.95C13.9957 20 15.4214 19.9975 16.497 19.8412C17.5353 19.6903 18.1004 19.4142 18.5138 18.9673C18.9374 18.5094 19.2067 17.8656 19.3511 16.7045C19.4982 15.5221 19.5 13.9616 19.5 11.7568V11.2432C19.5 10.3942 19.4997 9.6407 19.491 8.96751C19.4851 8.51472 19.4822 8.28833 19.3362 8.14417C19.1901 8 18.9608 8 18.5022 8H3.49783Z" fill="#8F8881"/>
<path fill-rule="evenodd" clip-rule="evenodd" d="M5.75 12C5.75 11.3096 6.30964 10.75 7 10.75H7.00897C7.69933 10.75 8.25897 11.3096 8.25897 12C8.25897 12.6904 7.69933 13.25 7.00897 13.25H7C6.30964 13.25 5.75 12.6904 5.75 12ZM9.7455 12C9.7455 11.3096 10.3052 10.75 10.9955 10.75H11.0045C11.6948 10.75 12.2545 11.3096 12.2545 12C12.2545 12.6904 11.6948 13.25 11.0045 13.25H10.9955C10.3052 13.25 9.7455 12.6904 9.7455 12ZM13.741 12C13.741 11.3096 14.3007 10.75 14.991 10.75H15C15.6904 10.75 16.25 11.3096 16.25 12C16.25 12.6904 15.6904 13.25 15 13.25H14.991C14.3007 13.25 13.741 12.6904 13.741 12ZM5.75 16C5.75 15.3096 6.30964 14.75 7 14.75H7.00897C7.69933 14.75 8.25897 15.3096 8.25897 16C8.25897 16.6904 7.69933 17.25 7.00897 17.25H7C6.30964 17.25 5.75 16.6904 5.75 16ZM9.7455 16C9.7455 15.3096 10.3052 14.75 10.9955 14.75H11.0045C11.6948 14.75 12.2545 15.3096 12.2545 16C12.2545 16.6904 11.6948 17.25 11.0045 17.25H10.9955C10.3052 17.25 9.7455 16.6904 9.7455 16Z" fill="#8F8881"/>
</svg>
