<svg width="14" height="8" viewBox="0 0 14 8" fill="none" xmlns="http://www.w3.org/2000/svg">
<path d="M13.593 0.194861C14.0376 0.522371 14.1326 1.14837 13.8051 1.59306C13.5507 1.93847 13.2963 2.2668 13.0731 2.5528C12.6276 3.1236 12.0143 3.8882 11.3479 4.6556C10.6859 5.4181 9.9518 6.2064 9.2666 6.8119C8.9251 7.1136 8.5721 7.3911 8.2279 7.5986C7.9112 7.7895 7.476 8 6.9999 8C6.5238 8 6.0885 7.7895 5.7718 7.5986C5.4276 7.3911 5.0747 7.1136 4.7332 6.8119C4.04791 6.2064 3.31387 5.4181 2.65183 4.6556C1.98548 3.8882 1.37216 3.1236 0.92664 2.5528C0.70347 2.2668 0.44902 1.93847 0.19463 1.59307C-0.13288 1.14837 -0.0378906 0.522371 0.406799 0.194861C0.585559 0.0632008 0.79362 -0.000169659 0.99982 3.4111e-07H6.9999H12.9999C13.2061 -0.000169659 13.4142 0.0632008 13.593 0.194861Z" fill="#8F8881"/>
</svg>
