<svg width="48" height="48" viewBox="0 0 48 48" fill="none" xmlns="http://www.w3.org/2000/svg">
<path d="M24.002 2.5C35.876 2.5 45.502 12.1259 45.502 24C45.502 24.19 45.499 24.3795 45.4941 24.5684C45.5053 24.6959 45.501 24.8244 45.4795 24.9512C44.9817 36.3838 35.5572 45.5 24.002 45.5C12.1278 45.5 2.50195 35.874 2.50195 24C2.50195 12.1259 12.1278 2.50002 24.002 2.5ZM35.4414 23.0381C35.7216 26.131 35.0104 29.9458 33.5068 33.6289C32.3188 36.539 30.5977 39.462 28.3623 41.9814C36.0489 40.1241 41.8615 33.4681 42.4512 25.3613C40.8138 24.1136 38.4865 23.2727 35.4414 23.0381ZM7.04004 16.6035C6.05087 18.8687 5.50195 21.3702 5.50195 24C5.50195 30.0986 8.45386 35.5068 13.0059 38.877C13.1156 38.7796 13.2422 38.6975 13.3828 38.6338C14.7898 37.9959 16.6641 36.6906 18.3066 34.7783C15.6408 33.1364 12.9633 30.1386 10.8564 26.5312C9.15552 23.6189 7.76669 20.2093 7.04004 16.6035ZM24.002 5.5C21.7635 5.5 19.6178 5.8976 17.6318 6.62598C17.2622 8.18151 17.1639 10.9113 18.2363 13.918C20.6579 12.2699 24.0818 11.1286 27.7617 10.6953C30.8088 10.3365 34.138 10.4501 37.3809 11.2236C34.0122 7.69716 29.2638 5.5 24.002 5.5Z" fill="#FEDF6F"/>
</svg>
