<svg width="48" height="48" viewBox="0 0 48 48" fill="none" xmlns="http://www.w3.org/2000/svg">
<path d="M24 14.5C28.0862 14.5 31.7494 16.3173 34.2227 19.1826L34.3877 19.3838C35.1785 20.3998 35.5029 21.5972 35.6875 22.582L35.8271 23.251C36.1894 24.8387 36.8197 26.5919 37.7715 27.9795C38.8406 29.538 40.2038 30.5 42 30.5C42.8284 30.5 43.5 31.1716 43.5 32C43.5 32.8284 42.8284 33.5 42 33.5C38.9044 33.5 36.7243 31.7562 35.2979 29.6768C34.0661 27.8811 33.3158 25.737 32.8984 23.9004L32.7393 23.1348C32.6826 22.8324 32.6171 22.5584 32.542 22.3105C31.4753 24.4734 30.7289 26.3051 30.9609 28.4678C31.1653 30.3703 32.4341 31.8053 34.4707 33.1406C35.4797 33.8022 36.6094 34.3951 37.7842 34.9883C38.9311 35.5674 40.153 36.1625 41.2217 36.7842L41.4062 36.8965C43.2668 38.0912 43.7947 40.2284 43.3486 41.9912C42.8806 43.8398 41.288 45.5 38.8633 45.5C34.9461 45.5 31.2534 45.2069 27.5 43.5654L27.1357 43.4023L26.9893 43.3252L23.8184 41.4141L20.7275 43.3174C20.6797 43.3468 20.6299 43.3736 20.5791 43.3975L19.9414 42.04H19.9404L20.5791 43.3975C16.7705 45.1876 13.0347 45.5 9.07129 45.5C6.65861 45.4998 5.10027 43.8148 4.64648 41.9834C4.20025 40.1821 4.75429 37.9674 6.73438 36.791L7.13379 36.5586C8.08039 36.0197 9.12055 35.5005 10.1025 34.9941C11.2527 34.401 12.3575 33.8088 13.3438 33.1484C15.3296 31.8188 16.577 30.3855 16.7783 28.4717L16.8008 28.2197C16.942 26.2586 16.3019 24.554 15.376 22.6045C15.3592 22.6712 15.3428 22.7395 15.3271 22.8096L15.2607 23.1348C14.889 25.118 14.1097 27.6248 12.7021 29.6768C11.2757 31.7562 9.09554 33.5 6 33.5C5.17157 33.5 4.5 32.8284 4.5 32C4.5 31.1716 5.17157 30.5 6 30.5C7.79618 30.5 9.15941 29.538 10.2285 27.9795C11.3163 26.3936 11.9849 24.3303 12.3125 22.582L12.3945 22.1777C12.607 21.2121 12.9795 20.1069 13.7773 19.1826L14.0127 18.917C16.48 16.2055 20.0415 14.5 24 14.5ZM24 2.5C27.0376 2.5 29.5 4.96245 29.5 8C29.5 11.0376 27.0376 13.5 24 13.5C20.9624 13.5 18.5 11.0376 18.5 8C18.5 4.96245 20.9624 2.5 24 2.5ZM24 5.5C22.6192 5.5 21.5 6.61927 21.5 8C21.5 9.38073 22.6192 10.5 24 10.5C25.3808 10.5 26.5 9.38073 26.5 8C26.5 6.61927 25.3808 5.5 24 5.5Z" fill="#C7D78D"/>
</svg>
